<?xml version="1.0" standalone="no"?>
<!DOCTYPE svg PUBLIC "-//W3C//DTD SVG 20010904//EN"
 "http://www.w3.org/TR/2001/REC-SVG-20010904/DTD/svg10.dtd">
<svg version="1.0" xmlns="http://www.w3.org/2000/svg"
 width="1024.000000pt" height="1024.000000pt" viewBox="0 0 1024.000000 1024.000000"
 preserveAspectRatio="xMidYMid meet">
<metadata>
Created by potrace 1.14, written by Peter Selinger 2001-2017
</metadata>
<g transform="translate(0.000000,1024.000000) scale(0.100000,-0.100000)"
fill="#000000" stroke="none">
<path d="M4319 7602 c-255 -110 -425 -320 -469 -582 l-13 -75 -106 -105 c-233
-231 -377 -486 -422 -745 -20 -116 -15 -333 11 -454 39 -185 123 -399 203
-518 l34 -51 -48 -45 c-63 -59 -91 -116 -97 -198 -4 -57 -1 -75 23 -127 48
-107 184 -210 301 -228 l42 -6 -54 -67 c-45 -55 -125 -193 -146 -251 -10 -28
-215 187 -305 320 -17 25 -54 86 -82 135 -56 97 -55 100 -25 -59 37 -197 139
-380 298 -536 l66 -65 0 -58 c0 -94 28 -205 77 -307 38 -79 59 -107 132 -180
132 -131 267 -191 462 -206 l87 -7 0 -61 c0 -95 17 -145 70 -195 44 -42 45
-46 43 -95 -2 -42 2 -55 18 -70 12 -11 21 -32 21 -47 0 -17 11 -41 28 -60 24
-27 38 -33 83 -37 64 -5 121 15 139 49 11 20 11 21 -11 15 -64 -19 -104 -18
-123 2 -22 25 -16 37 33 62 37 18 107 88 98 97 -3 2 -26 -10 -53 -26 -50 -32
-82 -38 -115 -21 -32 18 -22 44 33 81 52 35 88 89 102 151 l6 28 -42 -30 c-46
-33 -101 -46 -142 -36 -34 8 -56 54 -56 113 1 138 129 249 350 304 47 11 87
23 90 26 9 10 -184 -6 -330 -27 -197 -29 -351 -29 -455 -1 -110 30 -189 75
-261 146 -193 191 -192 462 4 699 37 45 162 156 176 156 5 0 42 -31 82 -70
100 -95 177 -145 442 -285 l227 -120 -3 -52 c-5 -69 17 -109 72 -133 24 -10
46 -25 49 -34 3 -8 32 -22 64 -31 32 -9 76 -25 98 -35 39 -18 121 -38 196 -47
49 -6 172 25 419 109 113 38 249 77 303 88 174 33 311 89 432 175 60 43 161
143 202 200 l22 30 41 -40 c59 -57 134 -172 160 -246 15 -44 24 -97 27 -169 5
-95 3 -113 -21 -183 -89 -266 -354 -463 -701 -523 -125 -22 -359 -15 -470 15
-164 44 -321 136 -444 260 -79 79 -82 76 -25 -26 120 -215 307 -356 562 -425
105 -28 320 -30 442 -4 377 81 644 300 751 617 52 154 53 366 2 519 -36 107
-114 239 -191 322 l-44 47 18 88 c35 169 17 367 -46 509 -46 105 -173 262
-265 327 l-30 22 16 -25 c92 -142 173 -310 199 -414 85 -337 -99 -692 -437
-842 -144 -64 -381 -100 -572 -86 l-105 8 -44 -39 c-49 -42 -116 -78 -180 -97
-36 -12 -42 -17 -40 -39 1 -15 -2 -33 -6 -40 -12 -19 -91 -8 -125 17 -23 17
-26 26 -26 73 1 30 3 72 5 94 8 65 -13 53 -43 -26 -23 -59 -28 -86 -25 -131 2
-32 1 -58 -3 -58 -4 0 -19 14 -33 31 -33 39 -34 84 -1 186 28 87 30 103 14
103 -11 0 -89 -159 -89 -183 0 -28 -18 -28 -40 0 -25 32 -23 44 27 160 19 46
51 98 71 119 59 61 92 72 477 164 488 116 793 390 901 807 23 89 25 110 20
238 -3 77 -8 154 -11 170 -5 27 -1 33 36 55 44 26 103 98 137 165 75 150 37
334 -86 415 -60 39 -110 52 -189 48 -57 -3 -64 -1 -68 17 -62 321 -173 530
-397 740 -309 290 -698 387 -1132 280 l-105 -26 -41 21 c-56 29 -118 86 -141
131 -38 75 -18 180 49 252 32 34 24 34 -59 -1z m797 -523 c220 -30 432 -138
591 -301 162 -166 284 -392 399 -741 53 -162 62 -166 63 -29 l1 82 28 0 c80 0
160 -52 193 -125 27 -59 25 -157 -5 -221 -26 -56 -93 -137 -109 -131 -5 1 -27
48 -49 102 -21 55 -36 89 -33 75 43 -197 53 -459 21 -595 -59 -253 -162 -436
-342 -605 -176 -165 -286 -213 -701 -305 -365 -81 -454 -89 -589 -55 -357 92
-617 306 -819 676 -216 397 -344 861 -316 1150 5 59 12 78 43 120 173 236 492
371 672 285 60 -29 81 -74 65 -133 -24 -91 -229 -256 -481 -389 -117 -62 -115
-63 40 -23 404 104 704 360 792 676 31 112 36 218 15 318 -26 125 -27 122 25
137 143 40 344 53 496 32z m-1473 -2121 c25 -38 88 -99 111 -108 15 -5 27 -23
35 -52 7 -23 32 -84 57 -135 24 -51 44 -95 44 -98 0 -3 -27 -5 -60 -5 -234 0
-388 248 -248 398 12 12 27 22 34 22 6 0 18 -10 27 -22z"/>
<path d="M5802 5737 c-29 -66 -114 -147 -192 -184 -86 -41 -161 -56 -248 -51
-75 4 -75 2 3 -40 45 -24 60 -27 155 -27 86 0 113 4 151 21 61 29 120 83 150
138 22 41 26 44 64 44 22 -1 54 6 70 15 l30 16 -39 1 c-50 0 -104 34 -112 68
-3 15 -7 32 -8 37 -2 6 -12 -11 -24 -38z"/>
<path d="M4655 5177 c-22 -22 -60 -53 -85 -69 -110 -70 -295 -94 -394 -50 -60
27 -60 27 -40 -3 26 -39 13 -103 -27 -139 l-33 -29 34 6 c22 4 47 20 66 42
l31 35 39 -17 c25 -11 65 -17 114 -17 94 0 173 33 242 101 43 42 104 151 96
173 -2 4 -21 -10 -43 -33z"/>
<path d="M5170 5120 c-24 -46 -50 -57 -102 -39 -44 14 -64 4 -54 -28 13 -40
81 -54 140 -29 65 27 104 116 56 129 -16 4 -25 -3 -40 -33z"/>
<path d="M5486 4847 c-56 -84 -149 -148 -256 -177 -40 -11 -136 -14 -210 -7
-21 2 -25 -2 -25 -23 0 -20 8 -28 35 -37 81 -28 214 -11 320 41 112 54 241
204 209 242 -20 24 -37 16 -73 -39z"/>
</g>
</svg>
